<?xml version="1.0" encoding="utf-8" ?><svg xmlns="http://www.w3.org/2000/svg" xmlns:xlink="http://www.w3.org/1999/xlink" width="1024" height="1024" viewBox="0 0 1024 1024"><path fill="#575656" d="M549.459 50.3764C555.17 46.875 559.531 41.7255 565.614 38.4906C585.891 27.7083 611.645 28.502 633.603 32.8696C655.39 37.7367 675.344 48.6514 687.978 67.3349C690.935 71.7083 697.87 82.7769 700.544 86.1172C729.053 83.7719 763.296 78.4842 786.846 98.6419C794.965 105.592 799.237 114.193 803.591 123.736C805.262 127.396 806.833 131.079 809.31 134.289C817.506 144.909 835.936 152.157 837.108 167.008C837.322 169.718 836.117 173.148 834.304 175.171C827.548 182.715 785.56 189.555 773.821 192.63C761.801 195.779 749.885 199.224 738.285 203.697C716.741 212.004 700.322 221.172 681.644 234.628C688.098 236.313 689.909 237.126 694.266 242.135C710.558 240.203 727.492 237.381 743.786 236.546C806.694 233.32 878.65 256.078 885.547 328.803C887.151 345.711 886.068 361.958 882.753 378.661C882.217 381.38 881.421 386.779 879.873 388.924L879.358 388.811C879.123 386.506 878.99 385.912 878.286 383.704C877.077 379.37 870.832 365.041 870.948 363.543C872.504 343.461 873.26 327.768 865.986 307.945C846.883 255.886 782.037 249.168 734.188 252.32C727.808 252.74 718.858 253.846 713.04 255.982C717.571 257.894 723.578 259.687 728.311 261.226C777.821 277.323 823.47 307.268 855.127 348.912C864.131 360.757 869.622 369.163 874.716 383.36C875.43 385.131 876.387 387.144 876.61 389.003C881.841 408.461 882.314 423.886 877.783 443.711C876.201 450.631 873.571 459.339 872.813 466.186L872.719 467.067C874.569 471.237 876.178 471.192 878.674 474.7C882.618 479.388 875.25 482.357 875.728 484.965C882.695 522.985 914.319 550.394 949.647 556.403C916.662 557.926 902.09 555.756 879.586 529.809C883.393 541.244 890.544 554.679 896.29 565.258C902.331 576.378 911.664 586.644 919.799 596.32C905.4 589.804 895.678 584.115 886.002 570.975C872.123 552.087 861.674 529.641 860.841 505.922C860.673 501.149 864.167 489.182 861.771 486.053C861.065 486.777 860.511 488.419 860.283 489.43C856.325 507 858.985 521.804 863.937 538.659C866.559 547.583 868.447 556.234 871.683 564.86C879.797 586.487 890.723 607.973 901.877 628.13C882.475 607.48 869.303 591.948 857.648 565.257C847.21 541.351 841.915 505.456 851.558 480.795C841.895 466.407 834.1 435.549 826.682 418.394C820.841 404.883 816.199 392.494 807.505 380.049C778.094 337.951 732.692 304.87 686.251 284.448C684.142 289.824 682.206 295.039 679.58 300.191C683.965 307.489 690.205 314.583 695.235 321.552C726.98 365.53 758.702 413.945 781.581 463.266C818.788 543.472 843.895 641.06 845.832 729.916C846.648 758.107 845.608 786.322 842.717 814.376C841.964 821.565 840.987 828.729 839.785 835.856C837.988 846.267 834.965 857.861 835.567 868.307C836.058 876.834 842.359 881.273 848.35 886.49C862.427 898.748 876.939 913.536 886.805 929.462C889.794 934.018 891.858 940.417 894.05 945.096C907.122 972.992 884.9 963.886 867.945 964.861C862.81 965.156 854.201 965.603 848.846 966.446C818.179 971.461 789.814 982.107 758.456 983.46C727.491 984.795 697.483 981.6 667.074 975.937C658.311 974.305 649.561 972.486 640.768 970.919C581.471 960.355 522.856 946.533 464.1 933.37C426.389 924.854 388.402 916.627 350.243 910.518C324.585 906.411 302.924 905.83 277.143 907.243C267.193 907.789 251.639 906.327 241.627 904.961C225.104 902.644 208.723 899.405 192.561 895.259C171.303 889.722 151.013 883.178 129.048 880.782C120.523 879.852 111.133 879.351 102.571 880.129C95.8317 880.741 87.8547 883.393 81.1767 882.407C79.1064 882.101 76.7819 880.91 75.612 879.123C74.6965 877.724 74.6035 876.191 74.9745 874.604C77.3682 864.367 118.447 835.633 128.68 828.849C138.855 822.103 149.546 816.027 159.832 809.416C162.232 724.316 177.532 640.073 205.21 559.564C219.432 518.85 237.509 479.588 259.193 442.31C274.963 415.311 295.298 385.616 316.01 362.14C322.969 354.253 334.177 345.018 342.283 338.206C385.097 302.227 431.203 276.906 481.249 252.873C476.76 245.371 475.299 240.356 478.625 231.567C481.509 223.944 486.399 220.181 493.533 216.848C484.482 205.693 489.669 190.545 504.525 188.207C507.263 187.776 509.261 189.122 512.544 188.035C512.479 187.849 512.436 187.652 512.347 187.475C510.951 184.691 502.727 179.307 500.05 177.181C492.094 170.863 484.701 163.898 477.301 156.944C467.273 147.52 417.533 92.3927 419.971 80.2982C420.515 77.5992 423.173 75.4959 425.385 74.1452C431.045 70.6889 437.846 68.386 443.933 65.76C467.387 55.6429 491.727 45.8689 517.73 46.3902C528.45 46.6051 538.923 50.5459 549.459 50.3764ZM103.601 866.084C125.274 865.425 141.798 866.641 162.988 872.562C198.803 882.571 236.142 892.686 273.5 893.167C286.485 893.298 299.341 892.277 312.435 892.545C327.446 892.99 342.409 894.439 357.226 896.883C391.949 902.397 421.503 909.12 455.753 916.606L549.121 937.575C567.895 941.56 586.708 945.362 605.556 948.982C646.917 957.291 714.826 972.224 755.431 966.857C747.537 965.271 739.526 964.344 731.644 962.731C723.752 961.116 682.61 951.739 679.194 946.431C678.471 945.308 678.407 944.317 678.801 943.054C679.401 941.13 681.525 939.574 683.109 938.517C691.352 933.02 700.514 928.596 708.889 923.175C739.014 903.675 780.658 872.36 795.114 838.492C799.023 829.332 801.44 818.053 797.83 808.416C795.741 802.839 791.311 797.812 785.794 795.439C784.803 795.012 783.79 794.643 782.781 794.26C774.832 797.439 766.907 801.359 759.138 804.91C723.457 821.221 686.979 835.681 648.29 843.047C643.695 843.922 638.93 845.082 634.315 846.08C646.139 837.343 663.993 827.672 676.875 819.828C702.1 804.469 729.689 786.031 751.633 766.21C766.558 752.689 780.462 738.081 793.229 722.506C799.264 715.119 814.871 691.131 820.174 687.286C822.105 719.628 822.117 753.358 819.875 785.715C818.533 801.59 816.304 817.705 814.443 833.476C812.757 847.766 809.4 862.367 811.209 876.666C814.013 898.829 830.753 909.523 847.811 920.867C857.402 927.245 867.328 940.304 872.775 950.514L881.33 950.528C875.327 932.308 857.686 915.834 843.627 903.365C833.1 894.029 821.944 885.234 820.064 870.175C818.585 858.331 822.33 847.09 824.164 835.505C840.505 731.346 824.908 621.197 789.444 522.431C782.442 502.931 769.613 468.472 757.501 451.419C757.146 450.922 756.77 450.441 756.374 449.977C758.708 456.431 761.407 462.64 763.757 469.129C770.766 488.937 777.275 508.92 783.278 529.057C795.103 570.058 806.778 636.039 809.886 678.46C798.854 697.398 786.896 712.006 772.334 728.068C757.011 745.18 740.339 761.034 722.48 775.479C715.442 781.064 707.911 786.178 700.503 791.23C665.767 814.921 628.991 834.934 591.551 853.959C580.061 859.798 568.539 865.216 556.616 870.123C555.969 870.392 554.951 871.753 554.493 872.349C552.337 873.194 550.227 872.955 549.183 873.822C551.758 874.077 572.473 870.395 576.219 869.72C600.384 865.364 626.205 860.867 650.066 855.092C677.158 848.419 703.846 840.199 729.997 830.472C739.095 827.215 748.121 823.758 757.067 820.104C763.358 817.468 769.699 814.137 776.185 812.096C778.175 811.469 780.551 810.909 782.639 811.355C784.267 811.703 786.051 812.811 787.051 814.144C788.466 816.031 788.59 818.474 788.145 820.714C786.99 826.525 782.389 832.106 778.829 836.65C758.52 862.578 729.411 885.616 701.654 903.09C684.065 914.163 642.337 937.594 622.166 938.088C608.862 938.413 593.334 934.236 580.225 931.688C561.13 927.976 541.852 924.628 522.894 920.278C451.079 903.798 384.94 885.611 320.768 847.897C301.884 836.798 283.143 824.168 266.993 809.297C253.919 797.258 236.197 775.348 226.655 760.08C222.135 752.846 212.736 737.159 211.201 729.19C209.065 718.098 221.76 658.428 224.896 644.934C245.107 557.942 285.887 462.833 343.897 394.419C374.334 359.012 410.005 328.467 449.673 303.842C470.457 290.934 490.332 280.257 512.016 269.047C506.702 266.85 501.174 263.299 496.461 261.495C439.021 286.123 372.503 325.537 328.172 369.751C319.48 378.42 309.606 391.807 302.332 401.763C272.511 442.886 247.973 487.592 229.296 534.831C196.011 618.16 178.971 708.497 174.616 798.029C174.441 801.623 174.3 812.981 172.981 816.992C163.108 825.758 146.674 832.994 136.03 840.977C125.007 849.244 113.089 857.183 103.601 866.084ZM578.957 195.45C578.309 199.419 578.456 204.56 578.48 208.663L578.034 216.152C581.593 217.115 586.382 218.262 589.739 219.518C594.344 220.84 598.994 222.278 603.591 223.652C611.538 205.261 620.515 187.098 625.647 167.672C627.263 161.553 629.403 155.26 631.488 149.284C621.465 158.614 607.647 178.566 601.145 190.685C597.822 196.878 592.981 207.948 589.977 214.645C588.17 214.784 588.513 215.36 586.241 215.095L585.978 214.526C586.442 210.881 586.554 205.835 588.238 202.939L588.981 202.829L589.571 203.525L589.984 203.517C591.049 199.361 592.337 189.705 592.844 185.317C599.833 147.68 611.69 98.7641 647.269 78.1096C659.744 70.8672 667.317 76.3311 673.875 87.1937C681.668 100.101 688.413 113.696 700.507 123.2C712.792 132.854 727.59 135.337 742.095 139.78C744.701 140.429 745.773 140.578 748.051 142.064C746.251 144.203 744.876 144.784 742.475 146.117C734.46 149.419 726.384 152.812 717.973 155.664C680.703 168.303 645.03 187.685 617.269 215.925C614.659 218.58 611.937 221.558 609.837 224.556C612.22 225.435 613.179 225.771 615.66 226.235C617.333 227.006 620.24 227.478 622.135 227.868C623.508 226.934 624.763 225.886 626.059 224.848C650.805 205.965 671.765 192.324 699.691 178.288C714.106 171.043 735.59 162.403 748.138 153.952C750.15 152.788 753.006 150.439 754.928 148.955L756.215 147.431C759.959 143.751 761.263 141.772 757.789 137.265L756.295 136.066C755.36 135.445 754.482 134.907 753.528 134.322C739.819 126.988 718.747 127.15 706.708 117.142C691.38 104.399 683.318 83.4294 669.512 68.5576C651.094 48.7165 625.214 43.9335 599.041 44.4884C594.813 60.6258 589.881 77.9544 586.836 94.1695C582.244 118.617 580.394 143.931 580.14 168.775C580.057 176.922 578.787 187.68 578.957 195.45ZM694.181 272.273C702.971 276.748 711.7 280.391 720.26 285.156C779.865 318.331 826.769 365.452 846.947 431.787C849.42 439.915 853.606 458.427 858.137 464.093L857.934 463.626L859.246 463.308L857.918 463.523L859.207 462.954C858.741 460.506 858.31 459.129 857.533 456.75C856.915 454.529 854.085 444.665 854.09 443.001C854.132 429.517 858.244 411.202 860.674 397.867C861.601 396.541 862.198 396.264 863.518 395.368C864.332 392.762 858.715 381.97 857.374 379.439C828.408 324.787 771.764 289.233 713.92 271.697C708.826 270.153 699.622 267.269 694.565 266.742L694.181 272.273ZM670.561 541.998L671.413 535.12C674.752 494.107 678.192 463.094 672.392 421.855C666.184 377.708 658.594 344.192 634.833 305.692C630.015 304.898 621.33 303.884 617.033 302.925L617.248 303.609C620.238 312.961 625.174 322.468 628.101 332.142C637.148 362.032 646.098 394.095 652.084 424.756C657.127 451.547 661.62 478.438 665.561 505.414C667.179 516.4 668.405 531.689 670.561 541.998ZM380.158 465.614C379.573 467.984 378.714 470.675 378.823 473.051L378.768 472.642C380.043 471.353 380.642 468.678 381.207 466.916C411.324 399.479 478.333 321.398 541.421 282.456C537.21 280.246 528.038 276.798 523.069 274.594C519.363 275.918 513.802 278.651 510.4 280.809C459.869 312.867 419.634 363.498 395.444 417.929C388.598 433.332 384.248 449.753 380.158 465.614ZM633.095 249.089C634.57 249.435 635.473 249.741 636.987 249.805C651.319 252.281 661.767 252.915 676.188 253.048C678.787 257.781 680.361 263.306 682.764 268.359C685.319 262.599 687.598 255.552 683.482 249.786C679.956 244.846 673.339 244.577 667.816 244.317C658.033 243.856 648.283 242.568 638.551 241.391C637.881 241.094 637.237 241.14 636.436 241.071C633.371 240.199 625.62 239 622.207 238.365C615.962 237.182 609.749 235.84 603.573 234.341C602.265 233.801 600.265 233.356 598.834 232.985C592.235 231.151 585.648 229.274 579.075 227.354C574.679 225.662 555.052 218.864 551.217 218.123C537.258 212.756 523.733 206.316 510.159 200.081C508.989 199.544 507.835 199.156 506.553 199.387C499.538 204.909 506.749 208.562 511.57 210.499C522.272 214.799 532.653 220.476 543.595 224.237C545.25 225.64 555.834 229.305 558.172 229.932L559.893 230.621C568.786 233.703 577.804 236.407 586.925 238.727C596.984 241.948 622.549 248.199 633.095 249.089ZM550.242 397.964C551.954 392.32 553.593 386.949 555.537 381.376C565.743 352.247 578.015 324.466 594.708 298.391C588.018 296.074 580.379 294.114 573.488 292.205C571.726 296.53 569.992 301.071 568.078 305.311C554.78 334.76 547.199 365.382 550.242 397.964ZM365.807 563.373C354.711 585.26 358.634 600.695 366.441 622.622C367.497 625.586 368.803 631.937 370.122 634.38C372.075 630.44 372.152 628.534 373.291 624.353C363.206 605.543 359.377 587.846 365.172 566.712C365.608 565.124 365.966 565.042 365.807 563.373ZM418.27 579.395C419.895 578.207 420.868 577.329 421.065 575.18C421.338 572.209 419.171 567.644 417.66 565.078C409.405 551.065 409.305 534.373 413.719 519.085C413.99 518.145 413.925 518.468 413.692 517.344C406.308 532.586 405.168 545.504 411.024 561.581C412.174 564.739 416.431 578.407 418.27 579.395ZM364.218 704.645C365.75 709.363 382.134 715.779 386.848 716.079L386.525 716.71C390.802 718.754 404.261 720.523 408.726 719.533C413.842 719.599 421.751 718.232 426.436 716.18C426.885 716.058 427.333 715.933 427.781 715.806C431.202 714.829 430.568 714.991 432.168 712.101L433.384 711.859C431.128 710.693 422.591 713.747 419.416 714.564C410.834 714.856 407.237 716.151 398.416 714.885C396.351 714.61 396.895 714.687 394.686 716.263C394.923 715.576 395.261 715.277 395.716 714.722C390.441 713.082 385.819 711.457 380.747 709.323C377.481 707.949 368.299 703.097 365.186 703.783L365.638 703.041C364.507 701.644 363.491 701.554 361.642 700.797C363.22 699.038 363.607 698.633 364.785 696.627C364.987 696.092 365.634 694.937 365.928 694.374C366.264 693.625 366.553 692.925 366.864 692.167C368.444 690.988 367.886 691.348 370.102 691.129C371.659 689.784 375.221 686.285 375.324 684.358C374.063 683.4 373.344 683.602 371.85 683.627L370.891 682.628L371.334 682.192C376.961 686.239 388.773 668.345 391.572 664.82C393.177 662.799 393.434 660.854 394.086 658.464L394.353 661.021L394.805 661.357L395.643 660.442C394.999 654.588 399.512 653.386 402.551 648.961C403.279 647.987 404.245 647.232 405.166 646.402L408.014 646.317C409.425 644.057 415.924 637.961 416.043 637.504C417.817 630.702 421.528 631.135 423.333 629.225C427.424 624.898 446.865 606.524 447.216 602.142L447.985 599.188C451.671 596.242 452.092 593.06 454.787 592.121L456.408 592.136C461.604 590.227 463.91 582.169 466.095 580.72C476.117 574.073 483.477 563.559 492.012 555C493.007 554.002 493.123 553.215 493.016 551.981C486.69 547.342 469.29 572.202 463.585 576.89C462.464 578.128 462.057 578.612 461.101 579.971C460.699 582.262 456.078 587.598 454.334 588.494L452.565 591.402C450.782 593.502 449.088 595.416 447.515 597.686L444.521 598.34C439.993 602.699 420.996 621.742 419.988 626.498C419.622 627.742 405.78 643.184 403.657 645.844C402.453 646.802 402.015 646.995 401.24 648.322C399.464 650.414 395.95 654.873 394.018 656.43L393.476 656.65C393.044 657.199 392.458 658.292 391.662 658.477C387.749 659.388 385.087 664.174 382.912 667.23C382.537 667.756 382.919 668.143 382.204 668.662L381.483 668.398C379.723 669.976 376.338 674.097 374.575 676.145C368.086 683.679 356.501 696.024 351.253 704.083C351.356 704.413 352.239 707.216 352.24 707.205C352.051 709.999 350.517 710.628 352.253 712.393C354.875 710.694 357.811 706.653 359.86 704.104C361.42 705.058 362.486 706.113 364.016 705.978L364.218 704.645ZM511.721 525.019C510.159 526.537 508.231 528.076 507.454 530.016C507.635 531.289 507.435 530.867 508.077 531.903L513.209 528.439C515.238 529.048 515.24 528.547 516.817 527.492C517.322 526.796 522.401 521.54 523.462 520.361C528.148 515.068 532.777 509.724 537.347 504.331C540.518 500.086 540.483 497.323 544.31 493.924C545.775 493.615 546.06 493.518 547.287 492.663C548.835 490.597 551.69 487.649 552.387 485.278C552.776 483.953 550.737 481.26 553.111 479.866L554.215 481.667L554.894 481.42C556.824 478.394 554.674 477.017 556.887 474.349L557.944 475.946L558.629 475.858C559.658 474.396 559.73 474.427 560.209 472.622C559.174 470.469 559.092 470.893 560.433 468.956L561.247 470.072C563.668 467.875 565.202 461.382 565.847 458.121C570.743 433.366 563.725 419.002 550.503 399.135C541.07 409.529 530.551 419.708 524.637 432.566C518.025 446.871 516.765 463.514 524.661 477.584C527.153 482.024 531.357 487.451 532.917 492.13C538.412 486.457 544.277 480.496 548.167 473.591C558.52 455.212 558.786 429.762 553.453 409.858C558.453 418.496 561.084 423.868 562.28 434.124C564.093 449.683 561.713 465.845 552.52 478.852C549.52 483.096 545.55 486.989 542.238 491.181C538.956 494.578 541.218 495.467 536.763 497.412L534.714 499.571C533.477 501.37 533.051 501.867 531.493 503.399C527.469 506.671 515.599 520.588 511.721 525.019ZM503.159 758.894C512.963 771.762 537.882 771.293 551.966 767.769C559.26 766.26 562.956 765.604 570.439 765.517C552.532 757.571 540.143 748.522 519.901 750.576C512.466 752.52 509.409 754.289 503.159 758.894ZM456.102 601.5C460.005 606.2 479.168 613.08 485.759 613.284C487.586 613.341 488.919 613.076 490.725 612.688C493.158 612.813 496.018 612.264 497.983 612.428C505.171 613.028 508.379 613.127 515.483 612.531C526.527 610.649 540 601.359 547.785 593.44C536.585 600.699 523.483 606.854 510.418 609.61L506.354 610.134C502.168 609.792 501.621 611.204 494.788 609.998C484.691 609.961 467.583 603.772 458.043 600.262L456.102 601.5ZM416.437 620.051L417.874 621.893C423.92 607.588 425.942 598.917 422.99 582.933C421.823 584.181 420.723 584.755 419.288 585.659C420.874 600.54 420.5 606.093 416.437 620.051ZM554.098 272.407L563.623 275.688C567.655 277.513 599.715 286.907 603.911 287.302C606.473 287.855 610.782 288.899 613.22 289.179C619.799 290.75 637.753 293.717 644.316 293.55C648.38 294.339 652.111 293.983 656.203 294.483L669.109 294.472C670.118 291.328 671.293 288.148 672.405 285.031C650.119 285.519 638.101 283.8 616.366 280.778C614.943 280.323 613.754 280.144 612.293 279.861C606.387 278.454 600.475 277.078 594.555 275.731C592.452 275.14 590.342 274.571 588.226 274.024C580.628 272.076 572.811 269.527 565.291 267.191L564.679 267.158C560.946 265.559 555.403 263.537 551.532 262.282C534.762 255.748 518.307 249.324 501.994 241.668C500.07 240.765 494.269 238.089 492.443 238.185C490.957 240.184 491.041 246.052 493.533 247.045C509.362 253.352 525.676 263.068 542.065 267.799C546.195 269.482 549.877 270.947 554.098 272.407ZM490.557 541.323L490.848 540.751C493.915 534.855 498.038 529.714 501.01 523.671C509.256 506.9 508.115 485.897 502.984 468.39C501.847 464.512 497.54 453.046 494.417 450.832C481.204 463.717 471.831 479.57 471.723 498.406C471.619 516.406 477.11 524.878 487.694 538.154L490.557 541.323ZM662.764 232.435C665.155 232.576 667.627 232.687 670.006 232.878C696.18 213.022 714.582 201.54 746.536 191.344C753.268 189.196 760.926 187.704 767.096 185.714C764.604 183.639 763.464 183.788 760.411 184.21C733.487 186.447 709.751 193.497 687.342 209.305C676.527 216.934 670.473 221.375 662.764 232.435ZM868.917 409.551C868.187 406.589 867.837 404.235 866.209 401.668L865.43 401.224C863.601 403.936 865.73 409.773 866.574 412.737C867.745 419.327 867.435 422.661 867.472 429.029C867.496 433.302 865.533 447.117 866.634 449.909C867.145 449.441 867.617 448.938 868.327 448.823C870.71 441.016 870.683 428.117 870.167 419.947C869.956 416.613 869.046 413.733 868.928 410.069L868.917 409.551ZM272.955 809.947L278.75 812.208L280.805 813.053C283.334 811.757 285.692 805.252 287.356 802.442C300.152 780.846 314.989 760.492 330.11 740.479C336.678 731.787 344.337 723.654 350.689 714.794C349.867 713.617 347.689 710.06 346.882 709.365C343.125 713.196 339.729 717.469 336.284 721.588C315.57 746.361 296.072 771.94 278.967 799.358C276.83 802.784 274.72 806.308 272.955 809.947ZM515.662 744.315C528.277 733.59 513.735 719.27 525.328 704.928C516.662 709.915 507.15 716.28 500.526 723.822C492.832 732.583 488.507 744.551 497.951 753.844L503.865 751.699L503.41 752.83C495.665 756.83 485.913 760.764 478.877 765.365C479.639 766.184 480.429 767.101 481.262 767.828C488.153 764.613 497.918 758.614 504.655 754.715C507.657 753.012 515.398 749.141 516.868 746.464C516.643 744.86 516.956 745.591 515.662 744.315ZM328.439 658.799L328.359 657.551C328.517 653.488 328.354 648.38 328.337 644.232C327.344 642.984 327.176 641.346 326.812 639.736C326.126 643.2 325.366 646.216 325.543 649.768C325.444 654.07 325.24 658.512 325.581 662.788C326.969 673.713 336.093 695.887 345.573 701.479L346.213 701.135C346.337 698.188 339.611 690.213 337.884 686.805C333.185 677.536 330.337 668.89 328.439 658.799ZM568.454 719.366C572.805 717.822 577.109 715.362 581.212 713.184C588.236 709.166 598.811 702.34 605.696 699.449C615.861 709.98 638.183 706.209 647.602 696.123C652.078 691.33 655.954 685.754 659.854 680.459C639.064 685.263 634.168 679.837 613.377 692.766C617.729 682.817 618.495 678.382 617.102 667.382C616.751 664.608 616.258 661.095 617.154 658.518C617.497 657.531 617.869 656.281 617.428 655.545C601.846 667.744 587.056 680.721 597.064 701.887C593.696 703.407 590.316 704.899 586.924 706.363C589.246 694.361 579.658 686.515 587.11 672.095C577.033 680.44 563.439 689.841 561.849 703.989C561.057 711.039 563.515 714.945 568.454 719.366ZM459.133 459.597C436.428 494.564 477.622 530.855 463.922 569.05L465.953 570.351L466.132 569.93C470.33 559.786 473.692 543.963 468.986 533.546C467.779 530.875 468.231 529.065 468.484 526.052L468.521 523.474C467.692 519.842 463.113 512.101 461.347 508.165C453.723 491.172 455.855 477.195 459.133 459.597ZM623.715 465.119C620.928 473.669 618.021 479.825 611.932 486.652C591.348 507.319 570.731 504.649 545.264 500.351C544.851 500.667 544.438 500.984 544.026 501.301L543.774 502.293C545.98 504.591 565.211 507.454 569.283 507.559C585.338 507.972 600.062 503.329 611.768 492.119C625.992 478.497 625.085 462.016 632.982 445.707L628.631 446.181C603.964 449.409 579.106 451.642 562.308 472.923C557.054 479.58 555.461 483.991 554.616 492.345C579.756 506.326 610.094 486.766 623.715 465.119ZM605.118 743.763C592.185 737.98 573.295 729.65 559.453 730.717C549.295 732.148 545.483 734.15 536.873 739.709C547.793 750.095 565.052 751.659 579.224 748.93C588.363 746.827 595.794 745.06 605.118 743.763ZM787.542 128.092L787.85 127.224C785.335 119.914 779.272 113.772 773.871 108.502C768.851 103.605 744.297 95.5586 740.398 101.192C741.423 101.915 749.208 104.834 751.377 105.905C760.523 110.419 766.64 115.422 774.261 121.889L774.983 122.783C777.764 125.901 781.154 129.512 783.732 132.726C788.364 134.656 787.619 136.341 790.584 137.843C790.907 134.406 787.517 132.051 787.542 128.092ZM763.148 967.31L763.011 966.729C760.093 966.43 757.458 966.33 754.532 966.217C754.664 967.177 754.589 966.75 754.749 967.513C757.448 968.319 760.225 967.643 763.148 967.31ZM455.473 781.383C457.922 780.138 459.494 779.471 461.638 777.716L458.722 776.988C457.366 777.679 455.947 778.301 454.778 779.256C453.022 780.099 451.147 780.716 450.172 782.319L450.334 783.2C452.567 783.583 453.562 782.682 455.473 781.383ZM443.735 708.037C445.182 707.319 446.723 706.839 447.426 705.502C446.564 704.922 446.95 705.061 446.354 704.899C444.561 705.735 443.642 705.768 442.748 707.153L443.735 708.037ZM372.574 651.303C372.407 654.533 371.637 660.689 373.495 663.123C376.02 661.922 375.998 653.34 376.03 650.592C376.054 650.174 376.068 649.756 376.072 649.337C376.099 646.619 375.634 638.169 373.75 636.249C371.874 636.774 372.052 636.425 370.888 637.631C370.749 640.525 372.11 648.189 372.574 651.303ZM440.218 593.948C439.148 591.723 430.449 582.591 428.321 581.869C428.437 585.902 436.464 593.954 440.218 593.948ZM802.831 151.41L802.287 152.604C803.971 154.88 807.461 156.629 809.99 158.071C809.686 156.447 804.44 152.294 802.831 151.41ZM798.468 146.286L797.625 148.231C798.555 150.368 800.333 151.311 802.274 152.748C802.602 150.823 802.813 151.685 801.652 149.835C801.274 149.234 798.957 146.523 798.468 146.286ZM476.242 534.195C477.246 537.661 481.96 541.264 484.997 543.086C485.969 543.669 485.939 543.351 486.974 542.978C485.943 541.129 478.113 534.567 476.242 534.195ZM557.549 210.123C560.734 211.03 569.343 213.761 572.162 213.39C571.199 201.468 543.247 108.389 537.586 100.842C537.226 124.832 544.3 190.84 557.549 210.123ZM525.31 61.9703C524.782 63.2751 524.446 63.9609 524.203 65.3731C525.992 66.6414 531.505 65.1181 534.114 64.8565L535.535 64.5722C534.641 63.1037 527.22 62.2794 525.31 61.9703ZM530.586 736.95C527.923 738.234 522.11 740.509 521.01 742.872C522.021 743.6 521.959 743.533 523.216 743.585C525.424 742.458 532.103 739.51 532.769 737.512C531.675 736.595 532.32 736.92 530.586 736.95ZM594.047 534.367C588.158 537.32 580.483 543.016 574.719 546.478C551.31 560.536 527.442 557.309 502.905 548.796C501.554 548.327 500.81 548.939 499.795 549.676L500.812 551.446C502.12 551.616 505.994 553.218 507.397 553.865C533.264 565.794 577.846 560.426 594.047 534.367ZM519.748 481.571C519.328 485.961 527.193 495.543 530.981 494.97C530.177 492.828 522.414 483.365 520.536 481.453L519.748 481.571ZM537.291 786.851C518.84 777.302 507.436 767.875 486.449 769.642C481.78 770.24 470.809 773.092 470.375 778.659C471.422 781.442 475.791 783.775 478.497 785.003C491.77 791.024 503.643 789.636 517.505 787.677C525.458 786.121 529.292 785.436 537.291 786.851ZM376.754 630.369C376.587 631.95 376.337 632.157 377.595 633.653C379.762 636.231 384.951 641.913 387.909 643.102C387.553 639.65 380.13 633.863 377.769 630.982C377.585 630.759 376.925 630.454 376.754 630.369ZM494.435 545.87L496.883 548.231C498.203 546.262 502.039 539.864 502.676 537.932L502.347 537.453C498.596 539.577 496.801 542.504 494.435 545.87ZM648.029 716.682C641.753 716.376 637.609 715.89 631.428 714.514C622.472 712.522 613.181 709.43 603.947 709.689C591.686 710.54 582.952 713.796 572.506 720.338C581.332 727.415 593.687 729.848 604.756 728.728C607.876 728.398 610.976 727.901 614.042 727.238C625.425 723.909 636.671 720.137 648.029 716.682ZM505.637 542.126L510.858 545.582C524.044 553.123 540.613 554.156 555.116 550.256C561.216 548.602 567.108 546.262 572.681 543.281C579.968 539.38 585.367 534.827 592.138 530.259C600.282 524.765 611.9 519.647 618.762 512.676L618.437 511.995C598.966 521.778 594.253 519.174 573.997 515.954C547.456 511.734 523.539 522.329 505.637 542.126ZM432.709 790.142C458.743 776.652 445.673 762.394 454.78 742.035L454.279 741.499C441.191 749.083 422.952 761.537 425.041 779.304C425.365 782.054 426.444 785.782 427.989 788.038C429.541 788.734 431.147 789.485 432.709 790.142ZM498.487 806.012C482.82 798.091 467.151 787.605 449.299 789.583C442.517 791.611 438.012 794.527 432.152 798.589C444.501 808.751 458.727 809.71 474.236 808.187C476.187 807.989 478.135 807.763 480.08 807.511C486.632 806.632 491.813 805.925 498.487 806.012ZM498.318 653.146L497.837 653.29C480.672 658.547 467.124 666.187 448.066 663.52C445.731 663.193 443.212 664.768 440.666 664.122C440.546 663.871 440.427 663.621 440.307 663.37L439.885 662.532C432.492 660.241 424.749 658.157 417.373 655.686C416.307 655.329 415.478 655.734 414.542 656.125C413.849 657.64 413.795 656.975 414.143 658.227C419.001 660.392 424.381 663.087 429.59 663.924C433.045 664.479 436.757 664.62 440.256 665.113C442.05 665.366 444.148 667.566 445.75 667.735C458.007 669.033 470.382 667.099 481.783 662.59C486.656 660.663 494.166 657.084 498.019 654.016L498.318 653.146ZM577.248 567.36C570.267 569.964 563.34 573.849 555.945 575.152C546.561 576.805 535.091 571.523 525.676 569.782C518.165 568.394 514.423 567.832 506.786 568.216C496.14 569.186 485.927 572.232 476.942 578.086C471.332 581.742 467.008 585.638 464.849 592.193C464.561 593.07 463.23 594.146 462.508 594.772C463.16 596.398 466.286 597.506 467.991 598.237C485.994 605.959 506.57 607.574 524.926 599.968C527.037 599.088 529.116 598.131 531.157 597.1C535.501 594.65 539.378 592.21 543.471 589.361C554.515 581.677 566.109 574.915 577.248 567.36ZM511.063 409.931C501.945 423.516 500.382 437.699 503.467 453.515C504.988 461.316 507.531 467.712 509.461 475.131C511.951 484.703 511.785 497.334 510.075 507.105C509.32 511.419 507.66 517.864 506.539 522.277C506.691 522.489 506.843 522.702 506.994 522.914L508.495 523.544C515.134 512.098 516.769 498.818 516.118 485.797C516.187 487.181 514.533 472.126 515.724 475.07C508.867 458.113 503.107 443.372 507.346 424.553C507.669 423.119 511.146 410.334 511.063 409.931ZM539.992 188.997C539.548 185.445 539.53 185.349 537.38 182.336C531.904 174.66 525.458 167.733 519.752 160.228C515.985 155.235 512.365 150.131 508.898 144.925C498.748 129.372 492.682 114.49 485.469 97.4703C483.763 93.4444 477.018 82.4395 478.939 79.1632C483.872 70.7459 522.473 69.0282 523.215 62.4184C513.383 58.8342 495.02 62.7126 485.1 65.2953C470.428 70.0451 449.48 77.5562 436.25 85.2367C449.916 104.063 467.625 127.668 484.358 143.59C490.816 149.735 533.578 188.846 538.009 190.225C539.225 189.872 539.178 189.951 539.992 188.997ZM463.055 770.086C465.919 769.982 467.89 769.934 470.753 769.463C471.217 769.05 471.938 768.65 472.489 768.305C479.533 763.002 484.109 759.086 485.586 749.751C486.97 741.012 484.409 733.552 488.435 725.456L488.275 724.435C486.518 724.028 485.143 724.879 483.649 725.849C469.803 734.838 448.793 752.206 463.055 770.086ZM555.488 690.361C545.18 697.109 531.304 706 528.52 718.961C526.965 726.2 527.976 732.035 535.247 734.998L534.977 736.608C536.656 737.445 541.842 734.281 543.675 733.336C546.583 731.703 563.701 722.529 564.746 720.515C560.233 719.101 556.052 722.874 552.437 725.324C559.579 712.358 548.947 703.699 556.531 691.715L556.439 690.841L555.488 690.361ZM446.215 503.907C434.039 517.891 426.012 535.344 427.026 554.258C427.85 569.623 435.085 579.28 444.422 590.724C446.665 589.104 447.789 586.576 449.543 584.594C469.64 561.888 464.888 529.148 447.873 506.106C447.327 505.368 446.774 504.635 446.215 503.907ZM348.16 605.285C330.057 630.14 326.41 662.575 344.313 688.711C346.049 691.246 348.059 694.152 350.419 696.127C351.513 696.379 351.079 696.427 351.719 696.288C354.599 693.924 355.268 691.469 357.224 688.633C374.581 663.474 369.414 631.833 351.541 608.502C350.706 607.412 349.373 606.079 348.16 605.285ZM396.982 553.638C376.172 575.333 368.66 609.404 389.142 634.576C391.358 637.299 393.945 641.542 396.983 643.288C400.265 636.481 406.371 630.668 410.079 623.108C418.153 606.647 416.392 584.393 408.019 568.334C406.657 565.721 399.707 554.018 397.953 553.107L396.982 553.638ZM371.909 695.658C370.816 696.456 369.327 697.467 368.376 698.359C383.088 705.877 389.904 709.639 406.994 709.431C429.716 709.153 443.823 699.763 461.932 687.98C454.086 684.278 450.869 682.23 443.374 677.697C426.711 667.619 399.906 667.511 384.718 680.916C382.321 683.045 380.172 685.44 378.314 688.053C376.563 690.527 374.622 694.963 371.909 695.658ZM456.352 621.175C442.985 622.726 431.446 627.76 422.829 638.404C419.728 642.235 419.487 646.374 416.515 648.976L416.733 649.89C419.78 651.567 423.01 652.243 426.237 653.414C444.598 660.072 461.529 659.671 479.881 653.573C491.713 648.816 501.121 642.238 511.602 635.195C514.093 633.52 517.988 631.623 519.934 629.56L519.903 628.733C514.939 628.822 508.256 631.802 503.925 630.97C488.091 627.93 473.306 618.356 456.352 621.175Z"/><path fill="#FEFEFE" d="M512.544 188.035C514.085 187.868 524.126 194.022 524.778 195.509C520.809 193.732 515.511 191.472 511.933 189.12C512.114 188.776 512.317 188.327 512.544 188.035Z"/><path fill="#575656" d="M194.989 823.688C201.279 822.977 207.649 823.57 213.699 825.431C228.454 830.079 237.572 840.48 244.27 853.904C245.455 856.281 246.257 857.853 245.467 860.317C242.88 861.926 223.548 858.683 219.623 858.142C205.205 856.656 190.008 852.882 176.314 848.224C148.942 838.915 184.339 825.349 194.989 823.688Z"/><path fill="#FEFEFE" fill-opacity="0.49019608" d="M565.291 267.191C572.811 269.527 580.628 272.076 588.226 274.024C585.202 277.97 583.958 274.993 584.343 278.294C584.492 279.568 585.614 280.491 586.597 281.158C590.001 281.694 592.819 278.478 594.555 275.731C600.475 277.078 606.387 278.454 612.293 279.861C611.303 281.368 606.116 282.75 603.89 284.94L603.413 286.262L603.911 287.302C599.715 286.907 567.655 277.513 563.623 275.688C569.247 270.227 565.228 272.332 564.337 268.348L565.291 267.191Z"/><defs><linearGradient id="gradient_0" gradientUnits="userSpaceOnUse" x1="439.67041" y1="595.48767" x2="411.77017" y2="649.73889"><stop offset="0" stop-color="white" stop-opacity="0"/><stop offset="1" stop-color="white" stop-opacity="0.039215688"/></linearGradient></defs><path fill="url(#gradient_0)" d="M447.515 597.686L447.985 599.188L447.216 602.142C446.865 606.524 427.424 624.898 423.333 629.225C421.528 631.135 417.817 630.702 416.043 637.504C415.924 637.961 409.425 644.057 408.014 646.317L405.166 646.402L403.657 645.844C405.78 643.184 419.622 627.742 419.988 626.498C420.996 621.742 439.993 602.699 444.521 598.34L447.515 597.686Z"/><path fill="#FEFEFE" fill-opacity="0.0078431377" d="M463.585 576.89C469.29 572.202 486.69 547.342 493.016 551.981C493.123 553.215 493.007 554.002 492.012 555C483.477 563.559 476.117 574.073 466.095 580.72C463.91 582.169 461.604 590.227 456.408 592.136L454.787 592.121L452.565 591.402L454.334 588.494C456.078 587.598 460.699 582.262 461.101 579.971C462.057 578.612 462.464 578.128 463.585 576.89Z"/><defs><linearGradient id="gradient_1" gradientUnits="userSpaceOnUse" x1="599.39917" y1="243.5191" x2="608.85565" y2="234.25107"><stop offset="0" stop-color="white" stop-opacity="0.82745099"/><stop offset="1" stop-color="white" stop-opacity="0.94117647"/></linearGradient></defs><path fill="url(#gradient_1)" d="M586.925 238.727C586.657 238.022 586.434 237.457 586.124 236.763L585.86 236.18C588.391 228.37 591.461 236.863 598.834 232.985C600.265 233.356 602.265 233.801 603.573 234.341C606.854 241.273 619.268 235.662 624.81 241.933C623.002 242.31 621.798 242.34 620.485 243.603L620.465 244.55C623.929 247.339 629.031 245.945 633.095 249.089C622.549 248.199 596.984 241.948 586.925 238.727Z"/><defs><linearGradient id="gradient_2" gradientUnits="userSpaceOnUse" x1="360.21811" y1="599.48279" x2="372.85751" y2="596.25342"><stop offset="0" stop-color="white" stop-opacity="0"/><stop offset="1" stop-color="#FCFCFC" stop-opacity="0.074509807"/></linearGradient></defs><path fill="url(#gradient_2)" d="M365.807 563.373C365.966 565.042 365.608 565.124 365.172 566.712C359.377 587.846 363.206 605.543 373.291 624.353C372.152 628.534 372.075 630.44 370.122 634.38C368.803 631.937 367.497 625.586 366.441 622.622C358.634 600.695 354.711 585.26 365.807 563.373Z"/><defs><linearGradient id="gradient_3" gradientUnits="userSpaceOnUse" x1="581.495" y1="192.0632" x2="590.71332" y2="193.87933"><stop offset="0" stop-color="white" stop-opacity="0.13725491"/><stop offset="1" stop-color="white" stop-opacity="0.24313726"/></linearGradient></defs><path fill="url(#gradient_3)" d="M586.036 181.144C587.918 181.05 588.044 181.115 589.821 181.437C591.899 183.25 591.236 182.332 592.228 185.045L592.844 185.317C592.337 189.705 591.049 199.361 589.984 203.517L589.571 203.525L588.981 202.829L588.238 202.939C584.016 201.565 585.395 199.119 585.066 196.074C584.452 197.308 583.898 198.318 584.077 199.663C584.456 202.506 580.593 206.105 578.48 208.663C578.456 204.56 578.309 199.419 578.957 195.45C579.254 197.868 578.947 200.284 579.335 203.436C581.384 201.089 579.68 191.228 581.743 187.353C583.19 184.634 584.147 183.563 586.036 181.144Z"/><defs><linearGradient id="gradient_4" gradientUnits="userSpaceOnUse" x1="408.07788" y1="549.50592" x2="421.39206" y2="545.71454"><stop offset="0" stop-color="white" stop-opacity="0"/><stop offset="1" stop-color="#F7F7F7" stop-opacity="0.035294119"/></linearGradient></defs><path fill="url(#gradient_4)" d="M413.692 517.344C413.925 518.468 413.99 518.145 413.719 519.085C409.305 534.373 409.405 551.065 417.66 565.078C419.171 567.644 421.338 572.209 421.065 575.18C420.868 577.329 419.895 578.207 418.27 579.395C416.431 578.407 412.174 564.739 411.024 561.581C405.168 545.504 406.308 532.586 413.692 517.344Z"/><path fill="#FEFEFE" fill-opacity="0.75686276" d="M551.217 218.123C555.052 218.864 574.679 225.662 579.075 227.354L579.006 227.955C575.905 227.332 568.895 227.493 565.595 227.637C563.806 227.566 558.473 227.164 558.172 229.932C555.834 229.305 545.25 225.64 543.595 224.237C545.181 220.655 547.42 219.17 551.217 218.123Z"/><defs><linearGradient id="gradient_5" gradientUnits="userSpaceOnUse" x1="571.29199" y1="235.27559" x2="583.83539" y2="227.94228"><stop offset="0" stop-color="white" stop-opacity="0.78431374"/><stop offset="1" stop-color="white" stop-opacity="0.8509804"/></linearGradient></defs><path fill="url(#gradient_5)" d="M579.075 227.354C585.648 229.274 592.235 231.151 598.834 232.985C591.461 236.863 588.391 228.37 585.86 236.18L586.124 236.763C586.434 237.457 586.657 238.022 586.925 238.727C577.804 236.407 568.786 233.703 559.893 230.621C562.853 229.73 565.095 230.866 567.267 229.896C567.077 228.498 566.983 228.842 565.595 227.637C568.895 227.493 575.905 227.332 579.006 227.955L579.075 227.354Z"/><defs><linearGradient id="gradient_6" gradientUnits="userSpaceOnUse" x1="356.59375" y1="699.29852" x2="363.65805" y2="702.586"><stop offset="0" stop-color="white" stop-opacity="0.96470588"/><stop offset="1" stop-color="white"/></linearGradient></defs><path fill="url(#gradient_6)" d="M359.86 704.104C357.811 706.653 354.875 710.694 352.253 712.393C350.517 710.628 352.051 709.999 352.24 707.205C352.239 707.216 351.356 704.413 351.253 704.083C356.501 696.024 368.086 683.679 374.575 676.145C376.338 674.097 379.723 669.976 381.483 668.398L382.204 668.662C380.098 673.673 373.903 678.162 371.334 682.192L370.891 682.628C368.855 684.795 361.711 692.086 362.089 694.961C363.755 695.464 363.876 695.028 365.928 694.374C365.634 694.937 364.987 696.092 364.785 696.627C363.607 698.633 363.22 699.038 361.642 700.797C363.491 701.554 364.507 701.644 365.638 703.041L365.186 703.783L364.218 704.645L364.016 705.978C362.486 706.113 361.42 705.058 359.86 704.104Z"/><path fill="#FEFEFE" d="M448.337 782.472C449.423 783.524 449.413 783.441 450.047 784.795C430.137 796.87 414.833 806.659 395.795 820.067L395.084 820.314L394.887 819.999C410.676 805.335 429.636 793.028 448.337 782.472Z"/><defs><linearGradient id="gradient_7" gradientUnits="userSpaceOnUse" x1="386.05933" y1="673.28699" x2="378.20584" y2="669.55243"><stop offset="0" stop-color="white" stop-opacity="0"/><stop offset="1" stop-color="white" stop-opacity="0.039215688"/></linearGradient></defs><path fill="url(#gradient_7)" d="M394.018 656.43L394.653 656.971L394.086 658.464C393.434 660.854 393.177 662.799 391.572 664.82C388.773 668.345 376.961 686.239 371.334 682.192C373.903 678.162 380.098 673.673 382.204 668.662C382.919 668.143 382.537 667.756 382.912 667.23C385.087 664.174 387.749 659.388 391.662 658.477C392.458 658.292 393.044 657.199 393.476 656.65L394.018 656.43Z"/><defs><linearGradient id="gradient_8" gradientUnits="userSpaceOnUse" x1="422.82629" y1="604.47778" x2="416.5972" y2="602.77472"><stop offset="0" stop-color="white" stop-opacity="0"/><stop offset="1" stop-color="white" stop-opacity="0.039215688"/></linearGradient></defs><path fill="url(#gradient_8)" d="M419.288 585.659C420.723 584.755 421.823 584.181 422.99 582.933C425.942 598.917 423.92 607.588 417.874 621.893L416.437 620.051C420.5 606.093 420.874 600.54 419.288 585.659Z"/><path fill="#FEFEFE" fill-opacity="0.17647059" d="M542.065 267.799C542.754 264.879 542.802 264.847 544.617 262.554C547.953 260.94 547.419 262.245 550.592 262.28L551.532 262.282C555.403 263.537 560.946 265.559 564.679 267.158C561.12 267.01 558.642 268.467 555.786 270.436C555.063 270.934 554.958 271.796 554.098 272.407C549.877 270.947 546.195 269.482 542.065 267.799Z"/><path fill="#FEFEFE" fill-opacity="0.26666668" d="M578.48 208.663C580.593 206.105 584.456 202.506 584.077 199.663C583.898 198.318 584.452 197.308 585.066 196.074C585.395 199.119 584.016 201.565 588.238 202.939C586.554 205.835 586.442 210.881 585.978 214.526L586.241 215.095C588.513 215.36 588.17 214.784 589.977 214.645C589.829 216.417 589.703 217.745 589.739 219.518C586.382 218.262 581.593 217.115 578.034 216.152L578.48 208.663Z"/><path fill="#FEFEFE" d="M508.077 531.903L513.209 528.439L514.137 529.654C512.229 534.601 501.133 542.771 499.923 546.972L500.339 547.694C499.837 548.523 499.795 548.707 499.795 549.676L500.812 551.446C498.97 551.343 497.659 551.065 496.35 549.95L496.883 548.231C498.203 546.262 502.039 539.864 502.676 537.932L502.347 537.453C498.596 539.577 496.801 542.504 494.435 545.87C492.988 545.837 492.346 546.587 491.161 547.493C489.223 546.444 487.749 545.865 486.357 544.165L486.974 542.978C488.795 542.748 491.039 544.09 493.011 544.912C496.79 540.7 501.68 534.755 505.826 531.206L505.66 533.35C507.004 533.206 506.836 532.978 508.077 531.903Z"/><defs><linearGradient id="gradient_9" gradientUnits="userSpaceOnUse" x1="870.30292" y1="431.54675" x2="866.29645" y2="430.8873"><stop offset="0" stop-color="white" stop-opacity="0"/><stop offset="1" stop-color="white" stop-opacity="0.05882353"/></linearGradient></defs><path fill="url(#gradient_9)" d="M868.917 409.551L868.928 410.069C869.046 413.733 869.956 416.613 870.167 419.947C870.683 428.117 870.71 441.016 868.327 448.823C867.617 448.938 867.145 449.441 866.634 449.909C865.533 447.117 867.496 433.302 867.472 429.029C867.435 422.661 867.745 419.327 866.574 412.737C867.378 410.978 867.904 411.068 868.917 409.551Z"/><path fill="#FEFEFE" fill-opacity="0.21960784" d="M503.865 751.699C506.579 750.27 507.066 751.69 509.263 750.485C508.841 746.922 505.944 748.94 504.212 746.379C504.793 742.895 510.551 736.796 514.51 741.33C514.897 743.945 513.595 743.922 513.587 745.896L515.662 744.315C516.956 745.591 516.643 744.86 516.868 746.464C515.398 749.141 507.657 753.012 504.655 754.715L503.41 752.83L503.865 751.699Z"/><path fill="#FEFEFE" d="M400.731 646.17C405.794 640.499 413.888 630.927 419.277 625.95L419.988 626.498C419.622 627.742 405.78 643.184 403.657 645.844C402.453 646.802 402.015 646.995 401.24 648.322C399.464 650.414 395.95 654.873 394.018 656.43L393.476 656.65L392.039 656.731C392.709 654.89 395.75 652.248 397.285 650.726C394.981 649.473 389.97 646.51 388.277 644.417C387.933 643.992 388.336 643.097 388.516 642.354C389.874 642.189 395.062 647.653 398.427 648.399L399.022 647.886C398.984 645.621 398.183 645.114 396.983 643.288C398.819 643.912 399.39 644.771 400.731 646.17Z"/><path fill="#FEFEFE" fill-opacity="0.40784314" d="M636.436 241.071C637.237 241.14 637.881 241.094 638.551 241.391C638.486 242.314 638.464 241.845 638.624 242.801C636.996 246.623 637.756 246.618 636.987 249.805C635.473 249.741 634.57 249.435 633.095 249.089C629.031 245.945 623.929 247.339 620.465 244.55L620.485 243.603C621.798 242.34 623.002 242.31 624.81 241.933C628.433 242.798 633.077 242.84 636.436 241.071Z"/><path fill="#FEFEFE" d="M405.166 646.402L408.014 646.317L416.062 647.138C416.401 648.392 416.389 647.73 415.623 649.171C411.786 651.203 407.755 646.712 404.502 649.721L404.396 650.803C406.95 653.465 413.082 655.331 413.306 656.752L412.536 657.364C408.679 656.054 405.231 654.504 401.293 653.23C399.367 655.854 397.735 657.951 395.643 660.442C394.999 654.588 399.512 653.386 402.551 648.961C403.279 647.987 404.245 647.232 405.166 646.402Z"/><path fill="#FEFEFE" fill-opacity="0.011764706" d="M503.41 752.83L504.655 754.715C497.918 758.614 488.153 764.613 481.262 767.828C480.429 767.101 479.639 766.184 478.877 765.365C485.913 760.764 495.665 756.83 503.41 752.83Z"/><defs><linearGradient id="gradient_10" gradientUnits="userSpaceOnUse" x1="624.70807" y1="223.23763" x2="618.38007" y2="222.19447"><stop offset="0" stop-color="white" stop-opacity="0.12941177"/><stop offset="1" stop-color="white" stop-opacity="0.16862746"/></linearGradient></defs><path fill="url(#gradient_10)" d="M620.357 218.545L622.182 217.791C623.827 217.103 624.743 216.426 626.146 217.772C626.233 219.67 625.823 223.774 626.059 224.848C624.763 225.886 623.508 226.934 622.135 227.868C620.24 227.478 617.333 227.006 615.66 226.235L616.423 225.893C615.667 225.282 616.027 225.668 615.419 224.668C615.893 223.49 619.056 220.303 620.357 218.545Z"/><defs><linearGradient id="gradient_11" gradientUnits="userSpaceOnUse" x1="610.41101" y1="284.3107" x2="612.70612" y2="287.34409"><stop offset="0" stop-color="white" stop-opacity="0.078431375"/><stop offset="1" stop-color="white" stop-opacity="0.11372549"/></linearGradient></defs><path fill="url(#gradient_11)" d="M612.293 279.861C613.754 280.144 614.943 280.323 616.366 280.778L615.931 281.385L616.648 282.211C616.305 284.786 614.74 287.104 613.22 289.179C610.782 288.899 606.473 287.855 603.911 287.302L603.413 286.262L603.89 284.94C606.116 282.75 611.303 281.368 612.293 279.861Z"/><path fill="#FEFEFE" fill-opacity="0.17254902" d="M756.295 136.066L757.789 137.265C755.271 140.573 754.603 143.382 756.215 147.431L754.928 148.955C752.281 147.136 748.503 145.979 745.686 147.925C744.624 150.301 745.17 150.734 746.434 152.914C743.397 150.972 743.52 149.663 742.475 146.117C744.876 144.784 746.251 144.203 748.051 142.064C748.737 140.538 748.25 141.196 749.701 140.13C751.831 140.417 752.52 141.757 754.185 143.568L754.649 143.151C754.624 139.266 754.974 139.52 756.295 136.066Z"/><path fill="#FEFEFE" d="M472.489 768.305C474.348 767.598 476.971 766.241 478.877 765.365C479.639 766.184 480.429 767.101 481.262 767.828C478.849 769.395 463.479 777.936 461.638 777.716L458.722 776.988C459.456 776.239 468.998 770.602 470.753 769.463C471.217 769.05 471.938 768.65 472.489 768.305Z"/><path fill="#FEFEFE" fill-opacity="0.93333334" d="M398.416 714.885C407.237 716.151 410.834 714.856 419.416 714.564C420.937 714.932 425.095 716.049 426.436 716.18C421.751 718.232 413.842 719.599 408.726 719.533C409.614 718.035 410.302 717.962 411.828 717.35C406.927 715.282 402.376 719.364 398.416 714.885Z"/><path fill="#FEFEFE" fill-opacity="0.30588236" d="M753.528 134.322C754.482 134.907 755.36 135.445 756.295 136.066C754.974 139.52 754.624 139.266 754.649 143.151L754.185 143.568C752.52 141.757 751.831 140.417 749.701 140.13C748.25 141.196 748.737 140.538 748.051 142.064C745.773 140.578 744.701 140.429 742.095 139.78C746.646 137.733 747.295 133.863 753.528 134.322Z"/><path fill="#FEFEFE" fill-opacity="0.65490198" d="M370.891 682.628L371.85 683.627C373.344 683.602 374.063 683.4 375.324 684.358C375.221 686.285 371.659 689.784 370.102 691.129C367.886 691.348 368.444 690.988 366.864 692.167C366.553 692.925 366.264 693.625 365.928 694.374C363.876 695.028 363.755 695.464 362.089 694.961C361.711 692.086 368.855 684.795 370.891 682.628Z"/><path fill="#FEFEFE" fill-opacity="0.29411766" d="M564.679 267.158L565.291 267.191L564.337 268.348C565.228 272.332 569.247 270.227 563.623 275.688L554.098 272.407C554.958 271.796 555.063 270.934 555.786 270.436C558.642 268.467 561.12 267.01 564.679 267.158Z"/><path fill="#FEFEFE" fill-opacity="0.72941178" d="M394.686 716.263C396.895 714.687 396.351 714.61 398.416 714.885C402.376 719.364 406.927 715.282 411.828 717.35C410.302 717.962 409.614 718.035 408.726 719.533C404.261 720.523 390.802 718.754 386.525 716.71L386.848 716.079C388.632 716.135 393.192 716.447 394.686 716.263Z"/><path fill="#FEFEFE" fill-opacity="0.98823529" d="M603.573 234.341C609.749 235.84 615.962 237.182 622.207 238.365C625.62 239 633.371 240.199 636.436 241.071C633.077 242.84 628.433 242.798 624.81 241.933C619.268 235.662 606.854 241.273 603.573 234.341Z"/><path fill="#FEFEFE" fill-opacity="0.15294118" d="M542.238 491.181C543.393 491.531 546.566 492.285 547.287 492.663C546.06 493.518 545.775 493.615 544.31 493.924C540.483 497.323 540.518 500.086 537.347 504.331C536.47 503.38 536.198 502.872 534.993 502.467C533.941 502.85 533.445 503.017 532.368 503.23L531.493 503.399C533.051 501.867 533.477 501.37 534.714 499.571L536.763 497.412C541.218 495.467 538.956 494.578 542.238 491.181Z"/><defs><linearGradient id="gradient_12" gradientUnits="userSpaceOnUse" x1="770.00226" y1="115.9575" x2="777.79169" y2="119.92776"><stop offset="0" stop-color="white" stop-opacity="0.047058824"/><stop offset="1" stop-color="white" stop-opacity="0.15294118"/></linearGradient></defs><path fill="url(#gradient_12)" d="M774.261 121.889C773.423 117.887 772.13 118.209 769.935 115.225C771.041 113.7 770.318 114.193 772.226 113.772C775.642 114.575 779.641 117.292 779.265 121.184C777.686 122.753 777.343 122.823 774.983 122.783L774.261 121.889Z"/><defs><linearGradient id="gradient_13" gradientUnits="userSpaceOnUse" x1="588.15454" y1="280.84329" x2="586.36835" y2="276.44437"><stop offset="0" stop-color="white" stop-opacity="0.43137255"/><stop offset="1" stop-color="white" stop-opacity="0.50196081"/></linearGradient></defs><path fill="url(#gradient_13)" d="M588.226 274.024C590.342 274.571 592.452 275.14 594.555 275.731C592.819 278.478 590.001 281.694 586.597 281.158C585.614 280.491 584.492 279.568 584.343 278.294C583.958 274.993 585.202 277.97 588.226 274.024Z"/><path fill="#FEFEFE" d="M454.787 592.121L456.408 592.136L456.782 592.813C455.569 594.251 453.954 596.049 452.838 597.502C454.054 598.083 457.276 599.449 458.043 600.262L456.102 601.5L455.887 602.208C453.861 601.63 452.452 600.582 450.657 599.464C449.653 600.765 448.848 602.319 447.536 602.694L447.216 602.142L447.985 599.188C451.671 596.242 452.092 593.06 454.787 592.121Z"/><path fill="#FEFEFE" fill-opacity="0.28627452" d="M746.434 152.914C745.17 150.734 744.624 150.301 745.686 147.925C748.503 145.979 752.281 147.136 754.928 148.955C753.006 150.439 750.15 152.788 748.138 153.952L746.434 152.914Z"/><path fill="#FEFEFE" fill-opacity="0.17254902" d="M644.316 293.55L648.9 293.435L649.184 293.12L647.603 291.536C648.32 288.12 654.026 287.773 656.59 289.829L656.675 290.855C655.825 291.734 654.531 292.724 654.354 293.689L656.203 294.483C652.111 293.983 648.38 294.339 644.316 293.55Z"/><path fill="#FEFEFE" fill-opacity="0.29411766" d="M494.788 609.998C501.621 611.204 502.168 609.792 506.354 610.134C507.834 610.419 513.687 611.887 514.191 611.895L515.483 612.531C508.379 613.127 505.171 613.028 497.983 612.428C496.018 612.264 493.158 612.813 490.725 612.688C492.211 612.443 493.028 612.538 494.676 612.14C495.127 610.887 495.034 611.41 494.788 609.998Z"/><path fill="#FEFEFE" fill-opacity="0.027450981" d="M372.574 651.303L374.537 649.821C375.547 650.276 375.049 650.02 376.03 650.592C375.998 653.34 376.02 661.922 373.495 663.123C371.637 660.689 372.407 654.533 372.574 651.303Z"/><path fill="#FEFEFE" d="M445.388 596.932C447.206 594.878 452.278 588.803 454.166 587.716L454.334 588.494L452.565 591.402C450.782 593.502 449.088 595.416 447.515 597.686L444.521 598.34L443.971 598.064C441.937 597.032 440.556 596.624 439.889 594.582L440.711 594.097C442.76 594.351 443.758 595.55 445.388 596.932Z"/><path fill="#FEFEFE" fill-opacity="0.0078431377" d="M428.321 581.869C430.449 582.591 439.148 591.723 440.218 593.948C436.464 593.954 428.437 585.902 428.321 581.869Z"/><path fill="#FEFEFE" d="M371.815 663.621C371.938 665.64 373.056 666.312 373.182 667.208C373.683 670.779 369.91 678.132 368.552 681.266L367.887 681.313C367.812 678.852 370.995 666.798 371.815 663.621Z"/><path fill="#FEFEFE" fill-opacity="0.18431373" d="M325.543 649.768L326.228 647.671L327.049 647.47C328.446 649.65 327.813 654.813 328.359 657.551L328.439 658.799C327.584 659.301 327.334 659.452 326.572 660.079L326.39 659.93C325.405 661.13 325.724 660.895 325.581 662.788C325.24 658.512 325.444 654.07 325.543 649.768Z"/><path fill="#FEFEFE" fill-opacity="0.11372549" d="M494.435 545.87C496.801 542.504 498.596 539.577 502.347 537.453L502.676 537.932C502.039 539.864 498.203 546.262 496.883 548.231L494.435 545.87Z"/><path fill="#FEFEFE" fill-opacity="0.011764706" d="M376.754 630.369C376.925 630.454 377.585 630.759 377.769 630.982C380.13 633.863 387.553 639.65 387.909 643.102C384.951 641.913 379.762 636.231 377.595 633.653C376.337 632.157 376.587 631.95 376.754 630.369Z"/><path fill="#FEFEFE" fill-opacity="0.29411766" d="M419.416 714.564C422.591 713.747 431.128 710.693 433.384 711.859L432.168 712.101C430.568 714.991 431.202 714.829 427.781 715.806C427.333 715.933 426.885 716.058 426.436 716.18C425.095 716.049 420.937 714.932 419.416 714.564Z"/><path fill="#FEFEFE" fill-opacity="0.98039216" d="M525.31 61.9703C527.22 62.2794 534.641 63.1037 535.535 64.5722L534.114 64.8565C531.505 65.1181 525.992 66.6414 524.203 65.3731C524.446 63.9609 524.782 63.2751 525.31 61.9703Z"/><path fill="#FEFEFE" fill-opacity="0.0078431377" d="M476.242 534.195C478.113 534.567 485.943 541.129 486.974 542.978C485.939 543.351 485.969 543.669 484.997 543.086C481.96 541.264 477.246 537.661 476.242 534.195Z"/><path fill="#FEFEFE" d="M365.928 694.374C366.264 693.625 366.553 692.925 366.864 692.167C368.444 690.988 367.886 691.348 370.102 691.129C369.084 692.417 368.005 693.237 367.994 694.518C368.72 694.727 371.312 695.394 371.909 695.658C370.816 696.456 369.327 697.467 368.376 698.359C367.637 698.095 365.592 697.026 364.785 696.627C364.987 696.092 365.634 694.937 365.928 694.374Z"/><path fill="#FEFEFE" d="M463.922 569.05L465.953 570.351C465.181 573.067 464.411 574.466 463.585 576.89C462.464 578.128 462.057 578.612 461.101 579.971C460.279 576.862 462.664 572.282 463.922 569.05Z"/><path fill="#FEFEFE" d="M539.992 188.997L540.798 187.874C542.755 189.342 545.418 194.242 545.955 196.51C543.838 195.283 539.891 193.586 539.334 191.149L540.172 189.901L539.992 188.997Z"/><path fill="#FEFEFE" fill-opacity="0.17647059" d="M783.732 132.726C785.347 130.871 786.56 130.924 787.542 128.092C787.517 132.051 790.907 134.406 790.584 137.843C787.619 136.341 788.364 134.656 783.732 132.726Z"/><path fill="#FEFEFE" fill-opacity="0.070588239" d="M508.077 531.903C507.435 530.867 507.635 531.289 507.454 530.016C508.231 528.076 510.159 526.537 511.721 525.019L512.419 527.219C514.306 527.836 514.378 526.844 516.817 527.492C515.24 528.547 515.238 529.048 513.209 528.439L508.077 531.903Z"/><path fill="#FEFEFE" d="M771.478 183.196C774.705 182.905 778.982 182.975 782.306 182.941C780.49 183.431 778.713 183.806 776.878 184.208C772.152 185.145 771.817 185.394 766.922 184.551L766.644 184.015C768.245 183.269 769.702 183.325 771.478 183.196Z"/><defs><linearGradient id="gradient_14" gradientUnits="userSpaceOnUse" x1="564.00464" y1="230.50232" x2="562.09424" y2="226.69917"><stop offset="0" stop-color="white" stop-opacity="0.66274512"/><stop offset="1" stop-color="white" stop-opacity="0.72156864"/></linearGradient></defs><path fill="url(#gradient_14)" d="M558.172 229.932C558.473 227.164 563.806 227.566 565.595 227.637C566.983 228.842 567.077 228.498 567.267 229.896C565.095 230.866 562.853 229.73 559.893 230.621L558.172 229.932Z"/><path fill="#FEFEFE" fill-opacity="0.63137257" d="M401.24 648.322L402.551 648.961C399.512 653.386 394.999 654.588 395.643 660.442L394.805 661.357L394.353 661.021L394.086 658.464L394.653 656.971L394.018 656.43C395.95 654.873 399.464 650.414 401.24 648.322Z"/><path fill="#FEFEFE" fill-opacity="0.67843139" d="M326.812 639.736C327.176 641.346 327.344 642.984 328.337 644.232C328.354 648.38 328.517 653.488 328.359 657.551C327.813 654.813 328.446 649.65 327.049 647.47L326.228 647.671L325.543 649.768C325.366 646.216 326.126 643.2 326.812 639.736Z"/><path fill="#FEFEFE" d="M412.047 632.568C413.186 628.909 414.821 623.31 416.437 620.051L417.874 621.893C417.374 624.613 413.646 630.217 412.047 632.568Z"/><path fill="#FEFEFE" d="M326.812 639.736C327.599 637.044 328.035 634.993 329.482 632.579C330.319 633.609 328.454 642.214 328.337 644.232C327.344 642.984 327.176 641.346 326.812 639.736Z"/><path fill="#FEFEFE" fill-opacity="0.18431373" d="M452.565 591.402L454.787 592.121C452.092 593.06 451.671 596.242 447.985 599.188L447.515 597.686C449.088 595.416 450.782 593.502 452.565 591.402Z"/><path fill="#FEFEFE" d="M468.521 523.474C470.71 525.525 471.984 526.865 472.8 529.732L472.464 530.524C470.371 529.711 469.732 528.08 468.484 526.052L468.521 523.474Z"/><path fill="#FEFEFE" fill-opacity="0.05882353" d="M454.778 779.256L455.473 781.383C453.562 782.682 452.567 783.583 450.334 783.2L450.172 782.319C451.147 780.716 453.022 780.099 454.778 779.256Z"/><path fill="#FEFEFE" fill-opacity="0.20392157" d="M458.722 776.988L461.638 777.716C459.494 779.471 457.922 780.138 455.473 781.383L454.778 779.256C455.947 778.301 457.366 777.679 458.722 776.988Z"/><path fill="#FEFEFE" fill-opacity="0.41960785" d="M798.468 146.286C798.957 146.523 801.274 149.234 801.652 149.835C802.813 151.685 802.602 150.823 802.274 152.748C800.333 151.311 798.555 150.368 797.625 148.231L798.468 146.286Z"/><path fill="#FEFEFE" d="M530.981 494.97C533.309 494.95 533.875 496.624 536.763 497.412L534.714 499.571C532.904 498.328 532.022 497.888 530.69 496.196L530.981 494.97Z"/><path fill="#FEFEFE" fill-opacity="0.98823529" d="M802.831 151.41C804.44 152.294 809.686 156.447 809.99 158.071C807.461 156.629 803.971 154.88 802.287 152.604L802.831 151.41Z"/><path fill="#FEFEFE" fill-opacity="0.97647059" d="M754.532 966.217C757.458 966.33 760.093 966.43 763.011 966.729L763.148 967.31C760.225 967.643 757.448 968.319 754.749 967.513C754.589 966.75 754.664 967.177 754.532 966.217Z"/><path fill="#FEFEFE" fill-opacity="0.078431375" d="M380.158 465.614L381.207 466.916C380.642 468.678 380.043 471.353 378.768 472.642L378.823 473.051C378.714 470.675 379.573 467.984 380.158 465.614Z"/><path fill="#FEFEFE" fill-opacity="0.12156863" d="M506.354 610.134L510.418 609.61L513.155 610.229C513.508 611.347 513.224 611.304 514.191 611.895C513.687 611.887 507.834 610.419 506.354 610.134Z"/><path fill="#FEFEFE" fill-opacity="0.078431375" d="M446.354 704.899C446.95 705.061 446.564 704.922 447.426 705.502C446.723 706.839 445.182 707.319 443.735 708.037L442.748 707.153C443.642 705.768 444.561 705.735 446.354 704.899Z"/><path fill="#FEFEFE" fill-opacity="0.32941177" d="M403.657 645.844L405.166 646.402C404.245 647.232 403.279 647.987 402.551 648.961L401.24 648.322C402.015 646.995 402.453 646.802 403.657 645.844Z"/><path fill="#FEFEFE" fill-opacity="0.29411766" d="M874.716 383.36L876.271 382.26C877.61 382.845 877.166 382.632 878.286 383.704C878.99 385.912 879.123 386.506 879.358 388.811L876.61 389.003C876.387 387.144 875.43 385.131 874.716 383.36Z"/></svg>