<?xml version="1.0" encoding="utf-8" ?><svg xmlns="http://www.w3.org/2000/svg" xmlns:xlink="http://www.w3.org/1999/xlink" width="1024" height="1024" viewBox="0 0 1024 1024"><path fill="#050505" d="M431.596 182.256C437.398 181.767 446.733 182.206 452.743 182.306C461.822 182.393 470.902 182.409 479.982 182.356L593.838 182.479C593.95 185.816 593.955 187.114 593.569 190.484C588.454 190.443 583.339 190.501 578.226 190.657C565.851 222.802 589.36 231.746 610.268 249.033C635.351 269.773 662.098 293.651 678.193 322.281C686.036 336.233 684.565 346.679 679.924 361.055C691.651 381.348 693.021 398.566 675.367 415.885C681.516 424.433 684.906 430.848 684.478 441.875C684.228 454.557 675.446 464.816 663.515 468.578C653.906 471.607 641.96 472.544 641.454 485.787C640.856 497.443 651.353 502.158 658.347 508.897C672.675 522.706 686.973 533.26 685.755 555.24C685.045 568.054 682.488 572.464 673.217 581.373C674.356 582.464 675.482 583.568 676.596 584.685C687.795 595.971 688.454 612.187 680.304 625.501C678.278 628.811 675.989 630.928 673.243 633.621C674.545 634.819 675.819 636.049 677.063 637.309C690.732 651.4 687.528 672.486 673.857 685.394C690.8 699.889 689.27 723.054 673.17 737.606C686.829 750.271 690.712 766.347 679.775 783.033C678.045 785.672 675.656 787.511 673.231 789.502C674.264 790.392 675.272 791.312 676.253 792.26C685.94 801.801 685.681 811.481 686.033 823.898C687.226 865.971 655.234 903.581 613.156 907.867C606.215 908.574 599.78 908.523 592.75 908.496L474.064 908.499L440.503 908.487C427.146 908.479 414.704 908.989 401.389 905.924C365.582 897.71 340.5 863.983 338.951 827.901C338.258 811.758 339.785 801.559 350.75 789.556C334.506 773.169 334.795 754.221 351.046 737.907C344.371 730.602 339.445 724.18 339.017 713.878C338.515 701.79 342.376 693.836 350.301 685.125L349.837 684.667C339.576 674.446 335.939 661.316 340.988 647.416C343.159 641.441 346.394 638.149 350.846 633.792C349.74 632.738 348.586 631.472 347.564 630.333C341.374 623.422 338.258 614.292 338.931 605.039C339.57 595.066 343.976 588.391 351.222 581.958C346.349 576.986 341.237 571.248 339.872 564.064C335.025 541.645 347.879 524.263 365.101 511.589C374.703 504.523 388.875 497.758 385.118 482.705C381.952 470.017 363.395 472.403 353.971 465.562C347.188 460.638 343.732 456.762 341.78 448.37C338.506 434.966 342.923 426.369 349.676 415.417C348.355 413.678 346.753 412.67 345.42 411.074C330.733 393.488 335.438 378.308 344.876 360.667C342.892 355.215 339.923 346.542 340.965 340.428C349.66 298.797 394.206 267.822 424.098 240.719C441.685 224.773 457.866 220.321 447.354 191.65C441.809 190.927 437.101 190.947 431.509 190.908L431.596 182.256ZM385.272 514.915C415.861 524.188 453.057 528.726 484.588 534.412C461.823 536.119 438.936 537.99 416.178 539.43L391.32 541.167C386.202 541.508 381.003 541.823 376.276 542.407C368.303 543.391 367.483 556.272 372.847 558.767C381.438 562.764 397.067 564.907 406.122 566.795C417.778 569.313 429.41 571.943 441.015 574.685L469.767 581.471C474.544 582.625 482.526 584.81 487.134 585.45C464.269 589.034 441.543 591.133 418.459 592.663C414.407 592.932 410.34 593.207 406.295 593.489C395.597 594.235 384.772 593.992 374.227 596.149C373.34 596.33 371.627 598.166 371.093 598.919C368.271 603.149 369.592 607.604 372.146 611.477C379.102 614.585 388.531 615.499 396.312 616.847C405.701 618.47 415.071 620.202 424.419 622.044C445.481 626.217 466.395 631.107 487.124 636.706C468.465 638.693 449.851 641.813 431.075 643.144C418.637 644.025 406.208 644.659 393.776 645.592C386.724 646.124 380.402 645.839 373.564 647.963C368.276 653.546 368.506 657.122 372.531 663.612C378.513 666.008 388.464 667.268 395.134 668.427C404.83 670.098 414.5 671.914 424.141 673.875C437.304 676.647 450.444 679.523 463.562 682.501C471.26 684.299 480.187 686.685 487.851 688.125C481.023 688.914 474.422 690.338 467.605 691.229C453.684 692.945 439.729 694.38 425.749 695.533C416.431 696.316 407.105 697.011 397.773 697.618C391.624 697.963 385.523 698.06 379.425 698.717C372.771 699.435 368.789 702.333 369.608 709.53C369.835 711.523 371.542 714.48 373.461 715.687C383.337 718.662 398.04 720.916 407.948 722.893C417.549 724.871 427.136 726.919 436.708 729.034C453.755 732.809 470.935 737.536 487.779 741.14C480.957 741.667 473.966 742.931 467.14 743.819C455.932 745.27 444.693 746.473 433.432 747.425C422.28 748.263 411.119 748.978 399.951 749.568C391.366 750.005 367.997 747.778 369.734 761.139C370.854 769.757 382.317 770.618 389.353 771.622C422.782 776.393 455.059 785.865 487.968 792.724C463.899 796.009 439.756 798.725 415.559 800.869C402.988 801.935 390.271 801.95 377.35 803.705C369.269 804.803 366.336 815.043 373.524 820.431C375.687 822.052 385.241 822.875 388.095 823.796C421.77 829.485 454.73 837.836 487.994 845.29C465.98 847.398 445.509 849.101 423.399 850.272C410.831 850.938 394.738 851.06 382.791 852.095C402.276 898.051 539.906 880.925 579.243 870.685C595.938 867.424 622.137 860.421 637.49 852.604C603.357 851.161 570.931 848.072 537.079 845.291C560.344 839.424 581.391 833.692 605.077 828.4L631.021 822.6C639.902 820.704 658.731 820.53 653.841 807.261C653.413 806.1 652.38 804.415 651.132 804.02C641.07 801.683 627.974 802 617.669 801.231C604.013 800.238 590.371 799.069 576.746 797.723C565.253 796.665 548.75 795.047 537.566 792.768C561.441 786.549 585.417 780.729 609.484 775.308C621.766 772.571 634.297 770.13 646.62 767.409C657.162 765.081 655.338 752.911 650.173 751.709C642.243 749.865 629.833 749.911 621.261 749.37C601.378 748.104 581.524 746.426 561.711 744.337C555.223 743.601 544.129 742.563 538.126 741.11C561.702 735.048 585.375 729.37 609.136 724.077C618.626 721.998 628.087 719.789 637.517 717.45C643.936 715.867 657.206 714.876 654.128 704.4C653.606 702.625 652.633 701.336 651.321 700.02C640.1 697.344 633.529 698.503 622.75 697.335C596.151 694.453 563.084 693.721 537.082 688.047L614.616 670.222C621.452 668.688 628.297 667.194 635.15 665.74C640.247 664.683 650.693 663.819 653.407 659.083C655.575 655.301 653.91 651.291 651.488 648.105C643.628 645.746 637.266 646.168 629.297 645.473C599.203 642.85 567.075 642.02 537.365 636.456C562.113 630.234 586.932 624.292 611.815 618.634C623.431 616.059 635.033 613.677 646.741 611.565C648.613 611.228 652.309 609.535 653.373 607.79C655.073 605.002 654.293 596.901 650.351 595.991C638.791 593.324 626.299 594.124 614.489 593.078C600.332 592.016 587.211 591.364 573.316 589.87C563.03 588.764 547.98 587.692 538.365 585.225C558.227 580.983 578.436 575.266 598.272 570.624L629.953 563.264C638.478 561.213 657.111 559.4 654.026 547.64C652.432 541.565 645.552 542.363 640.601 541.724C607.22 538.443 572.964 538.074 539.685 534.151C564.315 530.476 596.949 521.067 614.623 502.355C616.39 500.484 617.075 497.287 616.839 494.711C616.35 489.377 608.232 484.185 603.233 483.746C593.988 482.934 584.128 482.965 574.73 482.85C557.292 482.624 539.853 482.516 522.414 482.527L444.181 482.519C429.598 482.502 414.088 482.205 399.575 482.547C400.835 496.973 395.977 505.693 385.272 514.915ZM387.915 294.596C391.231 295.896 410.541 298.275 415.736 299.116L459.101 306.216C467.048 307.512 475.045 309.244 483.032 309.849L482.546 309.94C476.661 310.992 466.612 311.648 460.311 312.235C443.231 313.782 426.13 315.094 409.013 316.171C398.882 316.801 388.177 317.115 378.241 318.94C370.469 320.367 369.651 326.007 370.152 332.551C371.225 334.156 372.179 335.668 373.43 337.149C380.215 339.807 389.667 340.821 397.129 342.081C406.386 343.664 415.624 345.354 424.842 347.15C436.439 349.465 448.009 351.921 459.546 354.518C468.58 356.615 478.059 359.151 487.1 360.906C465.376 363.426 444.698 366.065 422.76 367.553L393.237 369.452C384.79 369.931 365.55 368.068 367.305 381.31C368.593 391.025 380.409 390.753 388.307 392.118C421.582 398.157 454.664 405.215 487.507 413.282C470.631 414.198 451.698 416.767 434.448 417.967L400.449 420.193C393.367 420.645 385.495 420.706 378.573 422.296C376.128 422.857 373.528 424.872 371.859 426.679C369.548 429.181 369.065 431.885 369.394 435.238C369.654 437.879 370.965 439.348 372.996 440.912C390.878 454.69 460.118 460.715 484.406 461.895C496.083 462.462 507.817 462.268 519.504 462.093C529.752 461.57 539.982 460.749 550.182 459.631C568.41 457.543 641.594 447.827 652.093 436.828C653.884 434.952 654.522 432.551 654.301 429.999C654.114 427.847 652.935 426.195 651.218 424.939C643.628 419.389 554.264 416.143 537.09 413.321C562.339 406.543 588.116 400.896 613.646 395.257C624.195 392.927 640.444 390.418 650.225 386.986C652.412 386.218 654.022 385.268 655.211 383.208C656.477 381.012 656.685 378.279 655.895 375.884C655.292 374.056 654.09 372.487 652.312 371.673C648.535 369.944 586.645 366.204 577.01 365.303C563.956 364.082 550.963 362.193 537.909 361.003C546.914 358.388 557.888 356.036 567.101 353.925L619.023 342.213C628.349 340.073 637.982 338.117 646.948 335.448C653.959 333.36 653.285 320.955 647.645 319.769C629.787 316.012 607.082 316.294 589.031 314.807C572.722 313.486 556.439 311.862 540.191 309.934C551.744 307.736 563.709 305.7 574.905 302.52C590.634 298.053 608.481 294.412 592.131 275.696C568.929 249.138 529.973 240.862 537.705 197.742C515.114 196.765 487.01 197.63 463.801 197.518C466.207 227.097 451.464 235.796 431.19 253.296C419.606 263.295 395.693 281.799 387.915 294.596Z"/><path fill="#050505" d="M463.533 101.237C482.158 100.454 501.783 101.404 520.58 101.089C535.846 100.833 551.876 100.496 567.078 102.05C574.063 102.765 582.996 111.851 584.984 118.875C588.204 136.215 585.331 154.792 586.177 172.446C578.587 172.562 570.736 172.452 563.125 172.445C521.604 172.71 480.081 172.731 438.56 172.508L438.496 142.661C438.457 123.3 438.073 103.894 463.533 101.237Z"/></svg>